# xmcd
#
# Track frame offsets: 
#        150
#        21226
#        41776
#        60885
#        76404
#        95827
#        114871
#        138564
#        150394
#        170932
#        193128
#        226485
#        246646
#        265460
#        288436
#        318954
#
# Disc length: 4478 seconds
#
# Revision: 1
# Processed by: cddbd v1.5.1PL2 Copyright (c) Steve Scherf et al.
# Submitted via: ExactAudioCopy v0.95b4
#
DISCID=e8117c10
DTITLE=Various Artist - Storm Blues Collection
DYEAR=1999
DGENRE=Blues
TTITLE0=B.B.King - The Thrill Is Gone
TTITLE1=John Lee Hooker - Boogie At Russian Hill
TTITLE2=Robert Cray - Some Pain, Some Shame
TTITLE3=Hohnny Winter - Johnny Guitar
TTITLE4=Omar and The Howlers - Black Bottom
TTITLE5=Stevie Ray Vaughan - Life Without You
TTITLE6=Eric Clapton - My Father's Eyes
TTITLE7=Taj Mahal - Lovin' In My Baby's Eyes
TTITLE8=Kenny Wayne Shepherd Band - Nothing To Do With Love
TTITLE9=Peter Green - Carry My Love
TTITLE10=Alvin Lee - The Bluesest Blues
TTITLE11=Buddy Guy - Feels Like Rain
TTITLE12=Joe Cocker - Let The Healing Begin
TTITLE13=Van Morrison - Healing Game
TTITLE14=Gary Moore - Parisienne Walkways
TTITLE15=Jimmy Reed - Cry Before I Go
EXTD=
EXTT0=
EXTT1=
EXTT2=
EXTT3=
EXTT4=
EXTT5=
EXTT6=
EXTT7=
EXTT8=
EXTT9=
EXTT10=
EXTT11=
EXTT12=
EXTT13=
EXTT14=
EXTT15=
PLAYORDER=
